<?xml version="1.0" encoding="utf-8"?>
<!-- Generator: Adobe Illustrator 21.0.0, SVG Export Plug-In . SVG Version: 6.00 Build 0)  -->
<svg version="1.1" id="Layer_1" xmlns="http://www.w3.org/2000/svg" xmlns:xlink="http://www.w3.org/1999/xlink" x="0px" y="0px"
	 width="1400px" height="980px" viewBox="0 0 1400 980" style="enable-background:new 0 0 1400 980;" xml:space="preserve">
<style type="text/css">
	.st0{fill-rule:evenodd;clip-rule:evenodd;fill:#64B8AE;}
	.st1{fill-rule:evenodd;clip-rule:evenodd;fill:#D6A165;}
	.st2{fill-rule:evenodd;clip-rule:evenodd;fill:#6DC2B8;}
	.st3{fill-rule:evenodd;clip-rule:evenodd;fill:#76C9BF;}
	.st4{fill-rule:evenodd;clip-rule:evenodd;fill:#FFF1B8;}
	.st5{fill-rule:evenodd;clip-rule:evenodd;fill:#54A59C;}
	.st6{fill-rule:evenodd;clip-rule:evenodd;fill:#306660;}
	.st7{fill-rule:evenodd;clip-rule:evenodd;fill:#315E59;}
	.st8{fill-rule:evenodd;clip-rule:evenodd;fill:#E0B37F;}
	.st9{fill-rule:evenodd;clip-rule:evenodd;fill:#CCCCCC;}
	.st10{fill-rule:evenodd;clip-rule:evenodd;fill:#3D827A;}
	.st11{fill-rule:evenodd;clip-rule:evenodd;fill:#FABE78;}
	.st12{fill-rule:evenodd;clip-rule:evenodd;fill:#FCC78A;}
	.st13{fill-rule:evenodd;clip-rule:evenodd;fill:#E6E6E6;}
	.st14{fill-rule:evenodd;clip-rule:evenodd;fill:#FFFFFF;}
</style>
<g>
	<rect y="0" class="st0" width="1400" height="980"/>
	<rect y="630.4" class="st1" width="1400" height="349.6"/>
	<path class="st2" d="M700,129.7c-254.4,0-468.2,161-529.3,379.1h1058.6C1168.2,290.7,954.4,129.7,700,129.7z"/>
	<path class="st3" d="M700,146.9c-200.1,0-368.2,153.7-416.3,362h832.6C1068.2,300.6,900.1,146.9,700,146.9z"/>
	<circle class="st4" cx="271.1" cy="266.7" r="68"/>
	<path class="st5" d="M783,191.1h-17.1c-0.7-2.7-2.8-4.8-5.1-5c0.1-0.4,0.2-0.8,0.2-1.2c0-2.6-2.1-4.7-4.7-4.7
		c-2.6,0-4.7,2.1-4.7,4.7c0,0.4,0.1,0.8,0.2,1.2c-2.3,0.2-4.5,2.3-5.1,5h-17.1c-2.2,0-2.7,2.3-2.1,3.6l2.2,5.1
		c0.6,1.3,1.2,2.6,2.6,2.6h15.1l0.8,8.6c0.1,1.6,0.6,3,1.2,4.2V233c-3.3,0.8-5.8,3.7-5.8,7.2v17.4c0,4.1,3.3,7.4,7.4,7.4h10.6
		c4.1,0,7.4-3.3,7.4-7.4v-17.4c0-3.5-2.5-6.5-5.8-7.2v-17.8c0.6-1.2,1.1-2.7,1.2-4.2l0.8-8.6h15.1c1.4,0,2-1.3,2.6-2.6l2.2-5.1
		C785.7,193.3,785.1,191.1,783,191.1z"/>
	<path class="st5" d="M754.3,255.7c-57.4,0-104.4,87.7-104.4,135v151.9h208.8V390.6C858.7,343.3,811.7,255.7,754.3,255.7z"/>
	<path class="st6" d="M711.3,508.8h503.5C1095.3,240.7,820.5,246.8,711.3,508.8z"/>
	<path class="st7" d="M913.1,391.1c-54.4,0-105.3,9.4-148.8,25.6c-50.5-27.1-133.1-123-236.7-123S327.4,431,296.4,508.8h887.5
		C1143.9,440.2,1037.7,391.1,913.1,391.1z"/>
	<path class="st1" d="M1247.7,672.5H152.3c-34.1,0-62,27.9-62,62v106.9c0,34.1,27.9,62,62,62h1095.4c34.1,0,62-27.9,62-62V734.6
		C1309.8,700.4,1281.8,672.5,1247.7,672.5z"/>
	<path class="st8" d="M90.2,734.5v106.9c0,34.1,27.9,62,62,62H814v-231H152.3C118.2,672.5,90.2,700.4,90.2,734.5z"/>
	<path class="st9" d="M1247.7,672.5h-222.5v231h222.5c34.1,0,62-27.9,62-62V734.6C1309.8,700.4,1281.8,672.5,1247.7,672.5z"/>
	<path class="st10" d="M90.2,734.6v106.9c0,34.1,27.9,62,62,62h483.5v-231H152.3C118.2,672.5,90.2,700.4,90.2,734.6z"/>
	<path class="st11" d="M1221.8,508.8H178.2c-48.4,0-87.9,39.6-87.9,87.9v151.5c0,48.3,39.6,87.9,87.9,87.9h1043.7
		c48.4,0,87.9-39.6,87.9-87.9V596.8C1309.8,548.4,1270.2,508.8,1221.8,508.8z"/>
	<path class="st12" d="M178.2,508.8c-48.4,0-87.9,39.6-87.9,87.9v151.5c0,48.3,39.6,87.9,87.9,87.9H814c5.3-5.7,8.4-11.9,8.4-18.6
		c0-37.9-14-48.3-14-68.8c0-16.1,16.5-25.7,30.4-29.1c19.5-4.8,47.1-18.3,60.4-34c14-16.4-35.6-81.6-10.3-96.9
		c16.4-9.9,24.4-16.5,36.5-31.8c11.1-14,9.8-31,2.8-48.1H178.2z"/>
	<path class="st13" d="M1221.8,508.8h-196.6v327.3h196.6c48.4,0,87.9-39.6,87.9-87.9V596.8C1309.8,548.4,1270.2,508.8,1221.8,508.8z
		"/>
	<path class="st5" d="M90.2,596.8v151.5c0,48.3,39.6,87.9,87.9,87.9c152.7,0,305.4,0,458.1,0c3.4-4.6-6.4-11.2-6.6-11.6
		c-14.9-30,116.2-5.5,116.2-36.5c0-21.4-62.7-15.7-57.8-35c4.2-16.7,30.1-23.6,54-23.6c16,0,49.8-1.5,49.8-11.7
		c0-13.2-34.9-10.1-49-25.7c-27.3-30.3,88.9-26.8,101.8-31.6c33.1-12.3-38.5-27.4-48.4-42.9c-17.8-28.1,33.5-29.7,49.2-31.7
		c40.4-5,1.1-28.2-10.5-40.3c-28.3-29.4,44.7-6.7,49.1-36.9c-235.3,0-470.7,0-706,0C129.8,508.8,90.2,548.4,90.2,596.8z"/>
	<path class="st0" d="M259.1,637.6c-2.6-4.1-0.2-9.8,2.3-11c-3.3,15.8,34.4,18.2,24.9-11.5c-3.9-12-14.9-17.5-32.5-17.2
		c-37,0.6-42.4,41.4-96.4,52.1l157.3,1.8C303.1,636.7,267.1,649.9,259.1,637.6z"/>
	<path class="st0" d="M391.7,709.1c-2.6-4.1-0.2-9.8,2.3-11c-3.3,15.8,34.4,18.2,24.9-11.5c-3.9-12-14.9-17.5-32.5-17.2
		c-37,0.6-42.3,41.4-96.4,52.1l157.3,1.8C435.8,708.2,399.7,721.3,391.7,709.1z"/>
	<path class="st0" d="M458,582.5c-2.6-4.1-0.2-9.8,2.3-11c-3.3,15.8,34.4,18.2,24.9-11.5c-3.9-12-14.9-17.5-32.5-17.2
		c-37,0.6-42.3,41.4-96.4,52.1l157.3,1.8C502.1,581.6,466,594.7,458,582.5z"/>
	<path class="st14" d="M330.2,259c-18.3,0-34.6,8.2-45.6,21c-4.1-1.6-8.6-2.5-13.3-2.5c-16,0-29.5,10.3-34.3,24.6
		c-7.5,1.2-14.1,5.2-18.7,10.8h171.6C386.9,282.7,361.3,259,330.2,259z"/>
	<path class="st14" d="M1174,260.8c-18.3,0-34.6,8.2-45.6,21c-4.1-1.6-8.6-2.5-13.3-2.5c-16,0-29.5,10.3-34.3,24.6
		c-7.5,1.2-14.1,5.2-18.7,10.8h171.6C1230.7,284.4,1205.1,260.8,1174,260.8z"/>
	<path class="st14" d="M710.1,316.8c-18.3,0-34.6,8.2-45.6,21c-4.1-1.6-8.6-2.5-13.3-2.5c-16,0-29.5,10.3-34.3,24.6
		c-7.5,1.2-14.1,5.1-18.7,10.8h171.6C766.8,340.4,741.2,316.8,710.1,316.8z"/>
	<path class="st5" d="M428,497c-2.6-4.1-0.2-9.8,2.3-11c-3.3,15.8,34.4,18.2,24.9-11.5c-3.9-12-14.9-17.5-32.5-17.2
		c-37,0.6-42.3,41.4-96.4,52.1l157.3,1.8C472,496.1,436,509.3,428,497z"/>
	<path class="st5" d="M515.3,501.7c-1.8-2.7-0.1-6.6,1.5-7.3c-2.2,10.6,23,12.2,16.7-7.7c-2.6-8.1-10-11.7-21.8-11.5
		c-24.8,0.4-28.4,27.8-64.6,35l105.5,1.2C544.8,501.1,520.6,509.9,515.3,501.7z"/>
	<path class="st14" d="M642.2,428.9h-9.7v42h6.6v-15.8h3.1c6.6,0,9.8-3.7,9.8-10.4v-5.5C652,432.6,648.8,428.9,642.2,428.9z
		 M645.4,445.2c0,3-1.1,4-3.2,4h-3.1v-14.2h3.1c2.1,0,3.2,1,3.2,4V445.2z"/>
	<path class="st14" d="M565.1,428.4c-6.5,0-9.8,3.8-9.8,10.6v21.8c0,6.7,3.4,10.6,9.8,10.6c6.5,0,9.8-3.8,9.8-10.6v-5.6h-6.2v6
		c0,3-1.3,4.1-3.4,4.1c-2.1,0-3.4-1.1-3.4-4.1v-22.7c0-3,1.3-4.1,3.4-4.1c2.1,0,3.4,1.1,3.4,4.1v4.5h6.2V439
		C574.9,432.3,571.6,428.4,565.1,428.4z"/>
	<path class="st14" d="M603.3,428.4c-6.5,0-10,3.8-10,10.6v21.8c0,6.7,3.5,10.6,10,10.6c6.5,0,10-3.8,10-10.6V439
		C613.3,432.3,609.8,428.4,603.3,428.4z M606.7,461.3c0,3-1.3,4.1-3.4,4.1c-2.1,0-3.4-1.1-3.4-4.1v-22.7c0-3,1.3-4.1,3.4-4.1
		c2.1,0,3.4,1.1,3.4,4.1V461.3z"/>
	<path class="st14" d="M909.8,428.9l-6.7,42h6.1l1.1-7.6h8.1l1.1,7.6h6.7l-6.7-42H909.8z M911.1,457.6l3.1-21.2h0.1l3.1,21.2H911.1z
		"/>
	<path class="st14" d="M830,428.9l-6.7,42h6.1l1.1-7.6h8.1l1.1,7.6h6.7l-6.7-42H830z M831.3,457.6l3.1-21.2h0.1l3.1,21.2H831.3z"/>
	<path class="st14" d="M801.3,448.6v-0.1c2.9-1.4,4.3-4.1,4.3-8.4v-1.5c0-6.5-2.9-9.7-9.8-9.7h-10v42h10.4c6.6,0,10-3.5,10-10v-3.4
		C806.2,453.1,804.8,450,801.3,448.6z M792.4,434.9h3.2c2.3,0,3.4,1.3,3.4,4.3v2.3c0,3.4-1.5,4.4-4,4.4h-2.6V434.9z M799.6,460.8
		c0,3.1-1.2,4.1-3.4,4.1h-3.8V452h2.9c3,0,4.3,1.2,4.3,5.1V460.8z"/>
	<path class="st14" d="M674.2,428.9l-6.7,42h6.1l1.1-7.6h8.1l1.1,7.6h6.7l-6.7-42H674.2z M675.5,457.6l3.1-21.2h0.1l3.1,21.2H675.5z
		"/>
	<path class="st14" d="M751.5,428.9l-6.7,42h6.1l1.1-7.6h8.1l1.1,7.6h6.7l-6.7-42H751.5z M752.8,457.6l3.1-21.2h0.1l3.1,21.2H752.8z
		"/>
	<polygon class="st14" points="879.3,454.1 879.2,454.1 872.6,428.9 864.3,428.9 864.3,470.9 870.2,470.9 870.2,440.5 870.3,440.5 
		878.4,470.9 885.2,470.9 885.2,428.9 879.3,428.9 	"/>
	<path class="st14" d="M717.7,428.4c-6.5,0-9.8,3.8-9.8,10.6v21.8c0,6.7,3.4,10.6,9.8,10.6c6.5,0,9.8-3.8,9.8-10.6v-5.6h-6.2v6
		c0,3-1.3,4.1-3.4,4.1c-2.1,0-3.4-1.1-3.4-4.1v-22.7c0-3,1.3-4.1,3.4-4.1c2.1,0,3.4,1.1,3.4,4.1v4.5h6.2V439
		C727.6,432.3,724.2,428.4,717.7,428.4z"/>
	<path class="st9" d="M1116.1,790.6h-48.7c-5.1,0-9.2,4.2-9.2,9.2c0,5.1,4.2,9.2,9.2,9.2h48.7c5.1,0,9.2-4.2,9.2-9.2
		C1125.3,794.8,1121.2,790.6,1116.1,790.6z"/>
	<path class="st9" d="M1116.1,646.9h-48.7c-5.1,0-9.2,4.2-9.2,9.2c0,5.1,4.2,9.2,9.2,9.2h48.7c5.1,0,9.2-4.2,9.2-9.2
		C1125.3,651,1121.2,646.9,1116.1,646.9z"/>
	<path class="st9" d="M1116.1,508.8h-48.7c-5.1,0-9.2,4.2-9.2,9.2c0,5.1,4.2,9.2,9.2,9.2h48.7c5.1,0,9.2-4.2,9.2-9.2
		C1125.3,513,1121.2,508.8,1116.1,508.8z"/>
	<g>
		<g>
			<path class="st10" d="M1068.9,794c0,4.5,3.7,8.3,8.3,8.3s8.3-3.7,8.3-8.3v-77.2h-16.5V794z"/>
			<g>
				<path class="st0" d="M1049.5,709.3c-15.3,0-27.7,4.6-27.7,10.4h8.6l1.9-2.8l1.9,2.8h8.9l2.2-3.3l2.2,3.3h8.3l2.4-3.7l2.4,3.7
					h16.7C1077.2,713.9,1064.8,709.3,1049.5,709.3z"/>
				<path class="st10" d="M1056,699c-14-6.2-27.2-6.9-29.5-1.7l7.8,3.5l2.8-1.8l0.6,3.3l8.1,3.6l3.3-2.1l0.7,3.9l7.6,3.3l3.7-2.4
					l0.7,4.4l15.3,6.7C1079.5,714.4,1070,705.1,1056,699z"/>
				<path class="st0" d="M1039.9,678.7l5.8,6.3l3.3-0.5l-0.8,3.3l6,6.6l3.9-0.6l-1,3.8l5.6,6.1l4.4-0.7l-1.1,4.3l11.3,12.3
					c4.2-3.9-0.7-16.1-11-27.4C1055.9,680.9,1044.1,674.9,1039.9,678.7z"/>
				<path class="st10" d="M1059.5,667.2l2.7,8.1l3.3,0.9l-2.1,2.7l2.8,8.4l3.8,1l-2.4,3.1l2.6,7.9l4.3,1.1l-2.7,3.5l5.3,15.8
					c5.4-1.8,5.9-15,1-29.5C1073.3,675.6,1065,665.3,1059.5,667.2z"/>
				<path class="st0" d="M1104.8,709.3c-15.3,0-27.7,4.6-27.7,10.4h16.7l2.4-3.7l2.4,3.7h8.3l2.2-3.3l2.2,3.3h8.9l1.9-2.8l1.9,2.8
					h8.6C1132.5,713.9,1120.1,709.3,1104.8,709.3z"/>
				<path class="st10" d="M1098.3,699c-14,6.2-23.4,15.4-21.1,20.6l15.3-6.7l0.7-4.4l3.7,2.4l7.6-3.3l0.7-3.9l3.3,2.1l8.1-3.6
					l0.6-3.3l2.8,1.8l7.8-3.5C1125.5,692,1112.3,692.8,1098.3,699z"/>
				<path class="st0" d="M1088.2,692.2c-10.3,11.3-15.2,23.6-11,27.4l11.3-12.3l-1.1-4.3l4.4,0.7l5.6-6.1l-1-3.8l3.9,0.6l6-6.6
					l-0.8-3.3l3.3,0.5l5.8-6.3C1110.2,674.9,1098.4,680.9,1088.2,692.2z"/>
				<path class="st0" d="M1076.1,690.1c-4.9,14.5-4.4,27.7,1,29.5l5.3-15.8l-2.7-3.5l4.3-1.1l2.6-7.9l-2.4-3.1l3.8-1l2.8-8.4
					l-2.1-2.7l3.3-0.9l2.7-8.1C1089.3,665.3,1081,675.6,1076.1,690.1z"/>
				<path class="st10" d="M1048,724.5c-13.2,7.6-21.6,17.9-18.8,22.8l7.4-4.3l0.2-3.4l3,1.5l7.7-4.4l0.2-3.9l3.5,1.7l7.2-4.1
					l0.3-4.4l4,2l14.5-8.3C1074.3,714.7,1061.2,716.8,1048,724.5z"/>
				<path class="st10" d="M1106.3,724.5c-13.2-7.6-26.3-9.8-29.1-4.9l14.5,8.3l4-2l0.3,4.4l7.2,4.1l3.5-1.7l0.2,3.9l7.7,4.4l3-1.5
					l0.2,3.4l7.4,4.3C1127.9,742.3,1119.5,732.1,1106.3,724.5z"/>
			</g>
		</g>
		<g>
			<path class="st10" d="M1068.9,516.4c0,4.5,3.7,8.3,8.3,8.3s8.3-3.7,8.3-8.3v-77.2h-16.5V516.4z"/>
			<g>
				<path class="st0" d="M1049.5,431.6c-15.3,0-27.7,4.6-27.7,10.4h8.6l1.9-2.8l1.9,2.8h8.9l2.2-3.3l2.2,3.3h8.3l2.4-3.7l2.4,3.7
					h16.7C1077.2,436.2,1064.8,431.6,1049.5,431.6z"/>
				<path class="st10" d="M1056,421.3c-14-6.2-27.2-6.9-29.5-1.7l7.8,3.5l2.8-1.8l0.6,3.3l8.1,3.6l3.3-2.1l0.7,3.9l7.6,3.3l3.7-2.4
					l0.7,4.4l15.3,6.7C1079.5,436.7,1070,427.5,1056,421.3z"/>
				<path class="st0" d="M1039.9,401.1l5.8,6.3l3.3-0.5l-0.8,3.3l6,6.6l3.9-0.6l-1,3.8l5.6,6.1l4.4-0.7l-1.1,4.3l11.3,12.3
					c4.2-3.9-0.7-16.1-11-27.4C1055.9,403.2,1044.1,397.2,1039.9,401.1z"/>
				<path class="st10" d="M1059.5,389.5l2.7,8.1l3.3,0.9l-2.1,2.7l2.8,8.4l3.8,1l-2.4,3.1l2.6,7.9l4.3,1.1l-2.7,3.5l5.3,15.8
					c5.4-1.8,5.9-15,1-29.5S1065,387.7,1059.5,389.5z"/>
				<path class="st0" d="M1104.8,431.6c-15.3,0-27.7,4.6-27.7,10.4h16.7l2.4-3.7l2.4,3.7h8.3l2.2-3.3l2.2,3.3h8.9l1.9-2.8l1.9,2.8
					h8.6C1132.5,436.2,1120.1,431.6,1104.8,431.6z"/>
				<path class="st10" d="M1098.3,421.3c-14,6.2-23.4,15.4-21.1,20.6l15.3-6.7l0.7-4.4l3.7,2.4l7.6-3.3l0.7-3.9l3.3,2.1l8.1-3.6
					l0.6-3.3l2.8,1.8l7.8-3.5C1125.5,414.4,1112.3,415.1,1098.3,421.3z"/>
				<path class="st0" d="M1088.2,414.5c-10.3,11.3-15.2,23.6-11,27.4l11.3-12.3l-1.1-4.3l4.4,0.7l5.6-6.1l-1-3.8l3.9,0.6l6-6.6
					l-0.8-3.3l3.3,0.5l5.8-6.3C1110.2,397.2,1098.4,403.2,1088.2,414.5z"/>
				<path class="st0" d="M1076.1,412.4c-4.9,14.5-4.4,27.7,1,29.5l5.3-15.8l-2.7-3.5l4.3-1.1l2.6-7.9l-2.4-3.1l3.8-1l2.8-8.4
					l-2.1-2.7l3.3-0.9l2.7-8.1C1089.3,387.7,1081,397.9,1076.1,412.4z"/>
				<path class="st10" d="M1048,446.8c-13.2,7.6-21.6,17.9-18.8,22.8l7.4-4.3l0.2-3.4l3,1.5l7.7-4.4l0.2-3.9l3.5,1.7l7.2-4.1
					l0.3-4.4l4,2l14.5-8.3C1074.3,437,1061.2,439.2,1048,446.8z"/>
				<path class="st10" d="M1106.3,446.8c-13.2-7.6-26.3-9.8-29.1-4.9l14.5,8.3l4-2l0.3,4.4l7.2,4.1l3.5-1.7l0.2,3.9l7.7,4.4l3-1.5
					l0.2,3.4l7.4,4.3C1127.9,464.7,1119.5,454.5,1106.3,446.8z"/>
			</g>
		</g>
		<g>
			<path class="st10" d="M1068.9,651.1c0,4.5,3.7,8.3,8.3,8.3s8.3-3.7,8.3-8.3v-77.2h-16.5V651.1z"/>
			<g>
				<path class="st0" d="M1049.5,566.3c-15.3,0-27.7,4.6-27.7,10.4h8.6l1.9-2.8l1.9,2.8h8.9l2.2-3.3l2.2,3.3h8.3l2.4-3.7l2.4,3.7
					h16.7C1077.2,571,1064.8,566.3,1049.5,566.3z"/>
				<path class="st10" d="M1056,556c-14-6.2-27.2-6.9-29.5-1.7l7.8,3.5l2.8-1.8l0.6,3.3l8.1,3.6l3.3-2.1l0.7,3.9l7.6,3.3l3.7-2.4
					l0.7,4.4l15.3,6.7C1079.5,571.4,1070,562.2,1056,556z"/>
				<path class="st0" d="M1039.9,535.8l5.8,6.3l3.3-0.5l-0.8,3.3l6,6.6l3.9-0.6l-1,3.8l5.6,6.1l4.4-0.7l-1.1,4.3l11.3,12.3
					c4.2-3.9-0.7-16.1-11-27.4C1055.9,538,1044.1,531.9,1039.9,535.8z"/>
				<path class="st10" d="M1059.5,524.2l2.7,8.1l3.3,0.9l-2.1,2.7l2.8,8.4l3.8,1l-2.4,3.1l2.6,7.9l4.3,1.1l-2.7,3.5l5.3,15.8
					c5.4-1.8,5.9-15,1-29.5C1073.3,532.7,1065,522.4,1059.5,524.2z"/>
				<path class="st0" d="M1104.8,566.3c-15.3,0-27.7,4.6-27.7,10.4h16.7l2.4-3.7l2.4,3.7h8.3l2.2-3.3l2.2,3.3h8.9l1.9-2.8l1.9,2.8
					h8.6C1132.5,571,1120.1,566.3,1104.8,566.3z"/>
				<path class="st10" d="M1098.3,556c-14,6.2-23.4,15.4-21.1,20.7l15.3-6.7l0.7-4.4l3.7,2.4l7.6-3.3l0.7-3.9l3.3,2.1l8.1-3.6
					l0.6-3.3l2.8,1.8l7.8-3.5C1125.5,549.1,1112.3,549.9,1098.3,556z"/>
				<path class="st0" d="M1088.2,549.3c-10.3,11.3-15.2,23.6-11,27.4l11.3-12.3l-1.1-4.3l4.4,0.7l5.6-6.1l-1-3.8l3.9,0.6l6-6.6
					l-0.8-3.3l3.3,0.5l5.8-6.3C1110.2,531.9,1098.4,538,1088.2,549.3z"/>
				<path class="st0" d="M1076.1,547.1c-4.9,14.5-4.4,27.7,1,29.5l5.3-15.8l-2.7-3.5l4.3-1.1l2.6-7.9l-2.4-3.1l3.8-1l2.8-8.4
					l-2.1-2.7l3.3-0.9l2.7-8.1C1089.3,522.4,1081,532.7,1076.1,547.1z"/>
				<path class="st10" d="M1048,581.5c-13.2,7.6-21.6,17.9-18.8,22.8l7.4-4.3l0.2-3.4l3,1.5l7.7-4.4l0.2-3.9l3.5,1.8l7.2-4.1
					l0.3-4.4l4,2l14.5-8.3C1074.3,571.7,1061.2,573.9,1048,581.5z"/>
				<path class="st10" d="M1106.3,581.5c-13.2-7.6-26.3-9.8-29.1-4.9l14.5,8.3l4-2l0.3,4.4l7.2,4.1l3.5-1.8l0.2,3.9l7.7,4.4l3-1.5
					l0.2,3.4l7.4,4.3C1127.9,599.4,1119.5,589.2,1106.3,581.5z"/>
			</g>
		</g>
	</g>
	<path class="st9" d="M1263.2,784.1h-109.3c-5.6,0-10.2,4.6-10.2,10.2v14.8c0,5.6,4.6,10.2,10.2,10.2h109.3
		c5.6,0,10.2-4.6,10.2-10.2v-14.8C1273.4,788.7,1268.8,784.1,1263.2,784.1z"/>
	<path class="st9" d="M1263.2,525h-109.3c-5.6,0-10.2,4.6-10.2,10.2V550c0,5.6,4.6,10.2,10.2,10.2h109.3c5.6,0,10.2-4.6,10.2-10.2
		v-14.8C1273.4,529.6,1268.8,525,1263.2,525z"/>
	<path class="st9" d="M1263.2,651.7h-109.3c-5.6,0-10.2,4.6-10.2,10.2v14.8c0,5.6,4.6,10.2,10.2,10.2h109.3
		c5.6,0,10.2-4.6,10.2-10.2v-14.8C1273.4,656.3,1268.8,651.7,1263.2,651.7z"/>
	<g>
		<g>
			<g>
				<path class="st10" d="M1250.8,439.2h-36.5c-4,0-7.3,4.6-7.3,10.2V541c0,5.6,3.3,10.2,7.3,10.2h36.5c4,0,7.3-4.6,7.3-10.2v-91.6
					C1258.1,443.8,1254.8,439.2,1250.8,439.2z"/>
				<path class="st5" d="M1226.7,482h-4.1c-0.4,0-0.8,0.5-0.8,1.1v11.2c0,0.6,0.4,1.1,0.8,1.1h4.1c0.4,0,0.8-0.5,0.8-1.1v-11.2
					C1227.5,482.5,1227.1,482,1226.7,482z"/>
				<path class="st5" d="M1234.6,498.9h-4.1c-0.4,0-0.8,0.5-0.8,1.1v11.2c0,0.6,0.4,1.1,0.8,1.1h4.1c0.5,0,0.8-0.5,0.8-1.1V500
					C1235.4,499.4,1235.1,498.9,1234.6,498.9z"/>
				<path class="st5" d="M1226.7,465h-4.1c-0.4,0-0.8,0.5-0.8,1.1v11.2c0,0.6,0.4,1.1,0.8,1.1h4.1c0.4,0,0.8-0.5,0.8-1.1v-11.2
					C1227.5,465.6,1227.1,465,1226.7,465z"/>
				<path class="st5" d="M1234.6,515.8h-4.1c-0.4,0-0.8,0.5-0.8,1.1v11.2c0,0.6,0.4,1.1,0.8,1.1h4.1c0.5,0,0.8-0.5,0.8-1.1v-11.2
					C1235.4,516.3,1235.1,515.8,1234.6,515.8z"/>
				<path class="st5" d="M1226.7,515.8h-4.1c-0.4,0-0.8,0.5-0.8,1.1v11.2c0,0.6,0.4,1.1,0.8,1.1h4.1c0.4,0,0.8-0.5,0.8-1.1v-11.2
					C1227.5,516.3,1227.1,515.8,1226.7,515.8z"/>
				<path class="st5" d="M1226.7,448.1h-4.1c-0.4,0-0.8,0.5-0.8,1.1v11.2c0,0.6,0.4,1.1,0.8,1.1h4.1c0.4,0,0.8-0.5,0.8-1.1v-11.2
					C1227.5,448.6,1227.1,448.1,1226.7,448.1z"/>
				<path class="st5" d="M1226.7,498.9h-4.1c-0.4,0-0.8,0.5-0.8,1.1v11.2c0,0.6,0.4,1.1,0.8,1.1h4.1c0.4,0,0.8-0.5,0.8-1.1V500
					C1227.5,499.4,1227.1,498.9,1226.7,498.9z"/>
				<path class="st5" d="M1218.8,498.9h-4.1c-0.4,0-0.8,0.5-0.8,1.1v11.2c0,0.6,0.4,1.1,0.8,1.1h4.1c0.5,0,0.8-0.5,0.8-1.1V500
					C1219.6,499.4,1219.2,498.9,1218.8,498.9z"/>
				<path class="st5" d="M1218.8,515.8h-4.1c-0.4,0-0.8,0.5-0.8,1.1v11.2c0,0.6,0.4,1.1,0.8,1.1h4.1c0.5,0,0.8-0.5,0.8-1.1v-11.2
					C1219.6,516.3,1219.2,515.8,1218.8,515.8z"/>
				<path class="st5" d="M1218.8,482h-4.1c-0.4,0-0.8,0.5-0.8,1.1v11.2c0,0.6,0.4,1.1,0.8,1.1h4.1c0.5,0,0.8-0.5,0.8-1.1v-11.2
					C1219.6,482.5,1219.2,482,1218.8,482z"/>
				<path class="st5" d="M1218.8,448.1h-4.1c-0.4,0-0.8,0.5-0.8,1.1v11.2c0,0.6,0.4,1.1,0.8,1.1h4.1c0.5,0,0.8-0.5,0.8-1.1v-11.2
					C1219.6,448.6,1219.2,448.1,1218.8,448.1z"/>
				<path class="st5" d="M1218.8,465h-4.1c-0.4,0-0.8,0.5-0.8,1.1v11.2c0,0.6,0.4,1.1,0.8,1.1h4.1c0.5,0,0.8-0.5,0.8-1.1v-11.2
					C1219.6,465.6,1219.2,465,1218.8,465z"/>
				<path class="st5" d="M1250.5,448.1h-4.1c-0.4,0-0.8,0.5-0.8,1.1v11.2c0,0.6,0.4,1.1,0.8,1.1h4.1c0.5,0,0.8-0.5,0.8-1.1v-11.2
					C1251.3,448.6,1250.9,448.1,1250.5,448.1z"/>
				<path class="st5" d="M1250.5,515.8h-4.1c-0.4,0-0.8,0.5-0.8,1.1v11.2c0,0.6,0.4,1.1,0.8,1.1h4.1c0.5,0,0.8-0.5,0.8-1.1v-11.2
					C1251.3,516.3,1250.9,515.8,1250.5,515.8z"/>
				<path class="st5" d="M1250.5,498.9h-4.1c-0.4,0-0.8,0.5-0.8,1.1v11.2c0,0.6,0.4,1.1,0.8,1.1h4.1c0.5,0,0.8-0.5,0.8-1.1V500
					C1251.3,499.4,1250.9,498.9,1250.5,498.9z"/>
				<path class="st5" d="M1242.5,465h-4.1c-0.4,0-0.8,0.5-0.8,1.1v11.2c0,0.6,0.4,1.1,0.8,1.1h4.1c0.5,0,0.8-0.5,0.8-1.1v-11.2
					C1243.4,465.6,1243,465,1242.5,465z"/>
				<path class="st5" d="M1242.5,448.1h-4.1c-0.4,0-0.8,0.5-0.8,1.1v11.2c0,0.6,0.4,1.1,0.8,1.1h4.1c0.5,0,0.8-0.5,0.8-1.1v-11.2
					C1243.4,448.6,1243,448.1,1242.5,448.1z"/>
				<path class="st5" d="M1250.5,482h-4.1c-0.4,0-0.8,0.5-0.8,1.1v11.2c0,0.6,0.4,1.1,0.8,1.1h4.1c0.5,0,0.8-0.5,0.8-1.1v-11.2
					C1251.3,482.5,1250.9,482,1250.5,482z"/>
				<path class="st5" d="M1250.5,465h-4.1c-0.4,0-0.8,0.5-0.8,1.1v11.2c0,0.6,0.4,1.1,0.8,1.1h4.1c0.5,0,0.8-0.5,0.8-1.1v-11.2
					C1251.3,465.6,1250.9,465,1250.5,465z"/>
				<path class="st5" d="M1242.5,498.9h-4.1c-0.4,0-0.8,0.5-0.8,1.1v11.2c0,0.6,0.4,1.1,0.8,1.1h4.1c0.5,0,0.8-0.5,0.8-1.1V500
					C1243.4,499.4,1243,498.9,1242.5,498.9z"/>
				<path class="st5" d="M1234.6,448.1h-4.1c-0.4,0-0.8,0.5-0.8,1.1v11.2c0,0.6,0.4,1.1,0.8,1.1h4.1c0.5,0,0.8-0.5,0.8-1.1v-11.2
					C1235.4,448.6,1235.1,448.1,1234.6,448.1z"/>
				<path class="st5" d="M1234.6,465h-4.1c-0.4,0-0.8,0.5-0.8,1.1v11.2c0,0.6,0.4,1.1,0.8,1.1h4.1c0.5,0,0.8-0.5,0.8-1.1v-11.2
					C1235.4,465.6,1235.1,465,1234.6,465z"/>
				<path class="st5" d="M1242.5,515.8h-4.1c-0.4,0-0.8,0.5-0.8,1.1v11.2c0,0.6,0.4,1.1,0.8,1.1h4.1c0.5,0,0.8-0.5,0.8-1.1v-11.2
					C1243.4,516.3,1243,515.8,1242.5,515.8z"/>
				<path class="st5" d="M1234.6,482h-4.1c-0.4,0-0.8,0.5-0.8,1.1v11.2c0,0.6,0.4,1.1,0.8,1.1h4.1c0.5,0,0.8-0.5,0.8-1.1v-11.2
					C1235.4,482.5,1235.1,482,1234.6,482z"/>
				<path class="st5" d="M1242.5,482h-4.1c-0.4,0-0.8,0.5-0.8,1.1v11.2c0,0.6,0.4,1.1,0.8,1.1h4.1c0.5,0,0.8-0.5,0.8-1.1v-11.2
					C1243.4,482.5,1243,482,1242.5,482z"/>
			</g>
			<g>
				<path class="st5" d="M1210.3,439.2H1159c-5.6,0-10.2,4.6-10.2,10.2V541c0,5.6,4.6,10.2,10.2,10.2h51.3c5.6,0,10.2-4.6,10.2-10.2
					v-91.6C1220.5,443.8,1215.9,439.2,1210.3,439.2z"/>
				<path class="st10" d="M1176.4,448.1h-5.8c-0.6,0-1.1,0.5-1.1,1.1v11.2c0,0.6,0.5,1.1,1.1,1.1h5.8c0.6,0,1.1-0.5,1.1-1.1v-11.2
					C1177.5,448.6,1177,448.1,1176.4,448.1z"/>
				<path class="st10" d="M1176.4,482h-5.8c-0.6,0-1.1,0.5-1.1,1.1v11.2c0,0.6,0.5,1.1,1.1,1.1h5.8c0.6,0,1.1-0.5,1.1-1.1v-11.2
					C1177.5,482.5,1177,482,1176.4,482z"/>
				<path class="st10" d="M1176.4,498.9h-5.8c-0.6,0-1.1,0.5-1.1,1.1v11.2c0,0.6,0.5,1.1,1.1,1.1h5.8c0.6,0,1.1-0.5,1.1-1.1V500
					C1177.5,499.4,1177,498.9,1176.4,498.9z"/>
				<path class="st10" d="M1187.5,515.8h-5.8c-0.6,0-1.1,0.5-1.1,1.1v11.2c0,0.6,0.5,1.1,1.1,1.1h5.8c0.6,0,1.1-0.5,1.1-1.1v-11.2
					C1188.7,516.3,1188.1,515.8,1187.5,515.8z"/>
				<path class="st10" d="M1187.5,498.9h-5.8c-0.6,0-1.1,0.5-1.1,1.1v11.2c0,0.6,0.5,1.1,1.1,1.1h5.8c0.6,0,1.1-0.5,1.1-1.1V500
					C1188.7,499.4,1188.1,498.9,1187.5,498.9z"/>
				<path class="st10" d="M1165.2,465h-5.8c-0.6,0-1.1,0.5-1.1,1.1v11.2c0,0.6,0.5,1.1,1.1,1.1h5.8c0.6,0,1.1-0.5,1.1-1.1v-11.2
					C1166.4,465.6,1165.9,465,1165.2,465z"/>
				<path class="st10" d="M1176.4,515.8h-5.8c-0.6,0-1.1,0.5-1.1,1.1v11.2c0,0.6,0.5,1.1,1.1,1.1h5.8c0.6,0,1.1-0.5,1.1-1.1v-11.2
					C1177.5,516.3,1177,515.8,1176.4,515.8z"/>
				<path class="st10" d="M1165.2,498.9h-5.8c-0.6,0-1.1,0.5-1.1,1.1v11.2c0,0.6,0.5,1.1,1.1,1.1h5.8c0.6,0,1.1-0.5,1.1-1.1V500
					C1166.4,499.4,1165.9,498.9,1165.2,498.9z"/>
				<path class="st10" d="M1165.2,515.8h-5.8c-0.6,0-1.1,0.5-1.1,1.1v11.2c0,0.6,0.5,1.1,1.1,1.1h5.8c0.6,0,1.1-0.5,1.1-1.1v-11.2
					C1166.4,516.3,1165.9,515.8,1165.2,515.8z"/>
				<path class="st10" d="M1165.2,482h-5.8c-0.6,0-1.1,0.5-1.1,1.1v11.2c0,0.6,0.5,1.1,1.1,1.1h5.8c0.6,0,1.1-0.5,1.1-1.1v-11.2
					C1166.4,482.5,1165.9,482,1165.2,482z"/>
				<path class="st10" d="M1165.2,448.1h-5.8c-0.6,0-1.1,0.5-1.1,1.1v11.2c0,0.6,0.5,1.1,1.1,1.1h5.8c0.6,0,1.1-0.5,1.1-1.1v-11.2
					C1166.4,448.6,1165.9,448.1,1165.2,448.1z"/>
				<path class="st10" d="M1187.5,482h-5.8c-0.6,0-1.1,0.5-1.1,1.1v11.2c0,0.6,0.5,1.1,1.1,1.1h5.8c0.6,0,1.1-0.5,1.1-1.1v-11.2
					C1188.7,482.5,1188.1,482,1187.5,482z"/>
				<path class="st10" d="M1176.4,465h-5.8c-0.6,0-1.1,0.5-1.1,1.1v11.2c0,0.6,0.5,1.1,1.1,1.1h5.8c0.6,0,1.1-0.5,1.1-1.1v-11.2
					C1177.5,465.6,1177,465,1176.4,465z"/>
				<path class="st10" d="M1198.6,448.1h-5.8c-0.6,0-1.1,0.5-1.1,1.1v11.2c0,0.6,0.5,1.1,1.1,1.1h5.8c0.6,0,1.1-0.5,1.1-1.1v-11.2
					C1199.8,448.6,1199.3,448.1,1198.6,448.1z"/>
				<path class="st10" d="M1209.8,498.9h-5.8c-0.6,0-1.1,0.5-1.1,1.1v11.2c0,0.6,0.5,1.1,1.1,1.1h5.8c0.6,0,1.1-0.5,1.1-1.1V500
					C1210.9,499.4,1210.4,498.9,1209.8,498.9z"/>
				<path class="st10" d="M1209.8,515.8h-5.8c-0.6,0-1.1,0.5-1.1,1.1v11.2c0,0.6,0.5,1.1,1.1,1.1h5.8c0.6,0,1.1-0.5,1.1-1.1v-11.2
					C1210.9,516.3,1210.4,515.8,1209.8,515.8z"/>
				<path class="st10" d="M1209.8,482h-5.8c-0.6,0-1.1,0.5-1.1,1.1v11.2c0,0.6,0.5,1.1,1.1,1.1h5.8c0.6,0,1.1-0.5,1.1-1.1v-11.2
					C1210.9,482.5,1210.4,482,1209.8,482z"/>
				<path class="st10" d="M1209.8,465h-5.8c-0.6,0-1.1,0.5-1.1,1.1v11.2c0,0.6,0.5,1.1,1.1,1.1h5.8c0.6,0,1.1-0.5,1.1-1.1v-11.2
					C1210.9,465.6,1210.4,465,1209.8,465z"/>
				<path class="st10" d="M1209.8,448.1h-5.8c-0.6,0-1.1,0.5-1.1,1.1v11.2c0,0.6,0.5,1.1,1.1,1.1h5.8c0.6,0,1.1-0.5,1.1-1.1v-11.2
					C1210.9,448.6,1210.4,448.1,1209.8,448.1z"/>
				<path class="st10" d="M1198.6,482h-5.8c-0.6,0-1.1,0.5-1.1,1.1v11.2c0,0.6,0.5,1.1,1.1,1.1h5.8c0.6,0,1.1-0.5,1.1-1.1v-11.2
					C1199.8,482.5,1199.3,482,1198.6,482z"/>
				<path class="st10" d="M1187.5,448.1h-5.8c-0.6,0-1.1,0.5-1.1,1.1v11.2c0,0.6,0.5,1.1,1.1,1.1h5.8c0.6,0,1.1-0.5,1.1-1.1v-11.2
					C1188.7,448.6,1188.1,448.1,1187.5,448.1z"/>
				<path class="st10" d="M1198.6,515.8h-5.8c-0.6,0-1.1,0.5-1.1,1.1v11.2c0,0.6,0.5,1.1,1.1,1.1h5.8c0.6,0,1.1-0.5,1.1-1.1v-11.2
					C1199.8,516.3,1199.3,515.8,1198.6,515.8z"/>
				<path class="st10" d="M1187.5,465h-5.8c-0.6,0-1.1,0.5-1.1,1.1v11.2c0,0.6,0.5,1.1,1.1,1.1h5.8c0.6,0,1.1-0.5,1.1-1.1v-11.2
					C1188.7,465.6,1188.1,465,1187.5,465z"/>
				<path class="st10" d="M1198.6,498.9h-5.8c-0.6,0-1.1,0.5-1.1,1.1v11.2c0,0.6,0.5,1.1,1.1,1.1h5.8c0.6,0,1.1-0.5,1.1-1.1V500
					C1199.8,499.4,1199.3,498.9,1198.6,498.9z"/>
				<path class="st10" d="M1198.6,465h-5.8c-0.6,0-1.1,0.5-1.1,1.1v11.2c0,0.6,0.5,1.1,1.1,1.1h5.8c0.6,0,1.1-0.5,1.1-1.1v-11.2
					C1199.8,465.6,1199.3,465,1198.6,465z"/>
			</g>
		</g>
		<g>
			<g>
				<path class="st10" d="M1250.8,564.8h-36.5c-4,0-7.3,4.6-7.3,10.2v91.6c0,5.6,3.3,10.2,7.3,10.2h36.5c4,0,7.3-4.6,7.3-10.2v-91.6
					C1258.1,569.3,1254.8,564.8,1250.8,564.8z"/>
				<path class="st5" d="M1226.7,607.5h-4.1c-0.4,0-0.8,0.5-0.8,1.1v11.2c0,0.6,0.4,1.1,0.8,1.1h4.1c0.4,0,0.8-0.5,0.8-1.1v-11.2
					C1227.5,608,1227.1,607.5,1226.7,607.5z"/>
				<path class="st5" d="M1226.7,590.6h-4.1c-0.4,0-0.8,0.5-0.8,1.1V603c0,0.6,0.4,1.1,0.8,1.1h4.1c0.4,0,0.8-0.5,0.8-1.1v-11.2
					C1227.5,591.1,1227.1,590.6,1226.7,590.6z"/>
				<path class="st5" d="M1226.7,624.4h-4.1c-0.4,0-0.8,0.5-0.8,1.1v11.2c0,0.6,0.4,1.1,0.8,1.1h4.1c0.4,0,0.8-0.5,0.8-1.1v-11.2
					C1227.5,624.9,1227.1,624.4,1226.7,624.4z"/>
				<path class="st5" d="M1234.6,641.3h-4.1c-0.4,0-0.8,0.5-0.8,1.1v11.2c0,0.6,0.4,1.1,0.8,1.1h4.1c0.5,0,0.8-0.5,0.8-1.1v-11.2
					C1235.4,641.9,1235.1,641.3,1234.6,641.3z"/>
				<path class="st5" d="M1226.7,641.3h-4.1c-0.4,0-0.8,0.5-0.8,1.1v11.2c0,0.6,0.4,1.1,0.8,1.1h4.1c0.4,0,0.8-0.5,0.8-1.1v-11.2
					C1227.5,641.9,1227.1,641.3,1226.7,641.3z"/>
				<path class="st5" d="M1226.7,573.7h-4.1c-0.4,0-0.8,0.5-0.8,1.1v11.2c0,0.6,0.4,1.1,0.8,1.1h4.1c0.4,0,0.8-0.5,0.8-1.1v-11.2
					C1227.5,574.2,1227.1,573.7,1226.7,573.7z"/>
				<path class="st5" d="M1218.8,624.4h-4.1c-0.4,0-0.8,0.5-0.8,1.1v11.2c0,0.6,0.4,1.1,0.8,1.1h4.1c0.5,0,0.8-0.5,0.8-1.1v-11.2
					C1219.6,624.9,1219.2,624.4,1218.8,624.4z"/>
				<path class="st5" d="M1234.6,624.4h-4.1c-0.4,0-0.8,0.5-0.8,1.1v11.2c0,0.6,0.4,1.1,0.8,1.1h4.1c0.5,0,0.8-0.5,0.8-1.1v-11.2
					C1235.4,624.9,1235.1,624.4,1234.6,624.4z"/>
				<path class="st5" d="M1218.8,641.3h-4.1c-0.4,0-0.8,0.5-0.8,1.1v11.2c0,0.6,0.4,1.1,0.8,1.1h4.1c0.5,0,0.8-0.5,0.8-1.1v-11.2
					C1219.6,641.9,1219.2,641.3,1218.8,641.3z"/>
				<path class="st5" d="M1218.8,590.6h-4.1c-0.4,0-0.8,0.5-0.8,1.1V603c0,0.6,0.4,1.1,0.8,1.1h4.1c0.5,0,0.8-0.5,0.8-1.1v-11.2
					C1219.6,591.1,1219.2,590.6,1218.8,590.6z"/>
				<path class="st5" d="M1218.8,573.7h-4.1c-0.4,0-0.8,0.5-0.8,1.1v11.2c0,0.6,0.4,1.1,0.8,1.1h4.1c0.5,0,0.8-0.5,0.8-1.1v-11.2
					C1219.6,574.2,1219.2,573.7,1218.8,573.7z"/>
				<path class="st5" d="M1218.8,607.5h-4.1c-0.4,0-0.8,0.5-0.8,1.1v11.2c0,0.6,0.4,1.1,0.8,1.1h4.1c0.5,0,0.8-0.5,0.8-1.1v-11.2
					C1219.6,608,1219.2,607.5,1218.8,607.5z"/>
				<path class="st5" d="M1250.5,573.7h-4.1c-0.4,0-0.8,0.5-0.8,1.1v11.2c0,0.6,0.4,1.1,0.8,1.1h4.1c0.5,0,0.8-0.5,0.8-1.1v-11.2
					C1251.3,574.2,1250.9,573.7,1250.5,573.7z"/>
				<path class="st5" d="M1234.6,607.5h-4.1c-0.4,0-0.8,0.5-0.8,1.1v11.2c0,0.6,0.4,1.1,0.8,1.1h4.1c0.5,0,0.8-0.5,0.8-1.1v-11.2
					C1235.4,608,1235.1,607.5,1234.6,607.5z"/>
				<path class="st5" d="M1250.5,624.4h-4.1c-0.4,0-0.8,0.5-0.8,1.1v11.2c0,0.6,0.4,1.1,0.8,1.1h4.1c0.5,0,0.8-0.5,0.8-1.1v-11.2
					C1251.3,624.9,1250.9,624.4,1250.5,624.4z"/>
				<path class="st5" d="M1242.5,573.7h-4.1c-0.4,0-0.8,0.5-0.8,1.1v11.2c0,0.6,0.4,1.1,0.8,1.1h4.1c0.5,0,0.8-0.5,0.8-1.1v-11.2
					C1243.4,574.2,1243,573.7,1242.5,573.7z"/>
				<path class="st5" d="M1250.5,607.5h-4.1c-0.4,0-0.8,0.5-0.8,1.1v11.2c0,0.6,0.4,1.1,0.8,1.1h4.1c0.5,0,0.8-0.5,0.8-1.1v-11.2
					C1251.3,608,1250.9,607.5,1250.5,607.5z"/>
				<path class="st5" d="M1242.5,590.6h-4.1c-0.4,0-0.8,0.5-0.8,1.1V603c0,0.6,0.4,1.1,0.8,1.1h4.1c0.5,0,0.8-0.5,0.8-1.1v-11.2
					C1243.4,591.1,1243,590.6,1242.5,590.6z"/>
				<path class="st5" d="M1250.5,590.6h-4.1c-0.4,0-0.8,0.5-0.8,1.1V603c0,0.6,0.4,1.1,0.8,1.1h4.1c0.5,0,0.8-0.5,0.8-1.1v-11.2
					C1251.3,591.1,1250.9,590.6,1250.5,590.6z"/>
				<path class="st5" d="M1250.5,641.3h-4.1c-0.4,0-0.8,0.5-0.8,1.1v11.2c0,0.6,0.4,1.1,0.8,1.1h4.1c0.5,0,0.8-0.5,0.8-1.1v-11.2
					C1251.3,641.9,1250.9,641.3,1250.5,641.3z"/>
				<path class="st5" d="M1242.5,607.5h-4.1c-0.4,0-0.8,0.5-0.8,1.1v11.2c0,0.6,0.4,1.1,0.8,1.1h4.1c0.5,0,0.8-0.5,0.8-1.1v-11.2
					C1243.4,608,1243,607.5,1242.5,607.5z"/>
				<path class="st5" d="M1234.6,590.6h-4.1c-0.4,0-0.8,0.5-0.8,1.1V603c0,0.6,0.4,1.1,0.8,1.1h4.1c0.5,0,0.8-0.5,0.8-1.1v-11.2
					C1235.4,591.1,1235.1,590.6,1234.6,590.6z"/>
				<path class="st5" d="M1234.6,573.7h-4.1c-0.4,0-0.8,0.5-0.8,1.1v11.2c0,0.6,0.4,1.1,0.8,1.1h4.1c0.5,0,0.8-0.5,0.8-1.1v-11.2
					C1235.4,574.2,1235.1,573.7,1234.6,573.7z"/>
				<path class="st5" d="M1242.5,624.4h-4.1c-0.4,0-0.8,0.5-0.8,1.1v11.2c0,0.6,0.4,1.1,0.8,1.1h4.1c0.5,0,0.8-0.5,0.8-1.1v-11.2
					C1243.4,624.9,1243,624.4,1242.5,624.4z"/>
				<path class="st5" d="M1242.5,641.3h-4.1c-0.4,0-0.8,0.5-0.8,1.1v11.2c0,0.6,0.4,1.1,0.8,1.1h4.1c0.5,0,0.8-0.5,0.8-1.1v-11.2
					C1243.4,641.9,1243,641.3,1242.5,641.3z"/>
			</g>
			<g>
				<path class="st5" d="M1210.3,564.8H1159c-5.6,0-10.2,4.6-10.2,10.2v91.6c0,5.6,4.6,10.2,10.2,10.2h51.3
					c5.6,0,10.2-4.6,10.2-10.2v-91.6C1220.5,569.3,1215.9,564.8,1210.3,564.8z"/>
				<path class="st10" d="M1176.4,573.7h-5.8c-0.6,0-1.1,0.5-1.1,1.1v11.2c0,0.6,0.5,1.1,1.1,1.1h5.8c0.6,0,1.1-0.5,1.1-1.1v-11.2
					C1177.5,574.2,1177,573.7,1176.4,573.7z"/>
				<path class="st10" d="M1176.4,590.6h-5.8c-0.6,0-1.1,0.5-1.1,1.1V603c0,0.6,0.5,1.1,1.1,1.1h5.8c0.6,0,1.1-0.5,1.1-1.1v-11.2
					C1177.5,591.1,1177,590.6,1176.4,590.6z"/>
				<path class="st10" d="M1176.4,607.5h-5.8c-0.6,0-1.1,0.5-1.1,1.1v11.2c0,0.6,0.5,1.1,1.1,1.1h5.8c0.6,0,1.1-0.5,1.1-1.1v-11.2
					C1177.5,608,1177,607.5,1176.4,607.5z"/>
				<path class="st10" d="M1187.5,624.4h-5.8c-0.6,0-1.1,0.5-1.1,1.1v11.2c0,0.6,0.5,1.1,1.1,1.1h5.8c0.6,0,1.1-0.5,1.1-1.1v-11.2
					C1188.7,624.9,1188.1,624.4,1187.5,624.4z"/>
				<path class="st10" d="M1187.5,641.3h-5.8c-0.6,0-1.1,0.5-1.1,1.1v11.2c0,0.6,0.5,1.1,1.1,1.1h5.8c0.6,0,1.1-0.5,1.1-1.1v-11.2
					C1188.7,641.9,1188.1,641.3,1187.5,641.3z"/>
				<path class="st10" d="M1165.2,641.3h-5.8c-0.6,0-1.1,0.5-1.1,1.1v11.2c0,0.6,0.5,1.1,1.1,1.1h5.8c0.6,0,1.1-0.5,1.1-1.1v-11.2
					C1166.4,641.9,1165.9,641.3,1165.2,641.3z"/>
				<path class="st10" d="M1165.2,624.4h-5.8c-0.6,0-1.1,0.5-1.1,1.1v11.2c0,0.6,0.5,1.1,1.1,1.1h5.8c0.6,0,1.1-0.5,1.1-1.1v-11.2
					C1166.4,624.9,1165.9,624.4,1165.2,624.4z"/>
				<path class="st10" d="M1187.5,607.5h-5.8c-0.6,0-1.1,0.5-1.1,1.1v11.2c0,0.6,0.5,1.1,1.1,1.1h5.8c0.6,0,1.1-0.5,1.1-1.1v-11.2
					C1188.7,608,1188.1,607.5,1187.5,607.5z"/>
				<path class="st10" d="M1165.2,607.5h-5.8c-0.6,0-1.1,0.5-1.1,1.1v11.2c0,0.6,0.5,1.1,1.1,1.1h5.8c0.6,0,1.1-0.5,1.1-1.1v-11.2
					C1166.4,608,1165.9,607.5,1165.2,607.5z"/>
				<path class="st10" d="M1165.2,590.6h-5.8c-0.6,0-1.1,0.5-1.1,1.1V603c0,0.6,0.5,1.1,1.1,1.1h5.8c0.6,0,1.1-0.5,1.1-1.1v-11.2
					C1166.4,591.1,1165.9,590.6,1165.2,590.6z"/>
				<path class="st10" d="M1176.4,641.3h-5.8c-0.6,0-1.1,0.5-1.1,1.1v11.2c0,0.6,0.5,1.1,1.1,1.1h5.8c0.6,0,1.1-0.5,1.1-1.1v-11.2
					C1177.5,641.9,1177,641.3,1176.4,641.3z"/>
				<path class="st10" d="M1165.2,573.7h-5.8c-0.6,0-1.1,0.5-1.1,1.1v11.2c0,0.6,0.5,1.1,1.1,1.1h5.8c0.6,0,1.1-0.5,1.1-1.1v-11.2
					C1166.4,574.2,1165.9,573.7,1165.2,573.7z"/>
				<path class="st10" d="M1176.4,624.4h-5.8c-0.6,0-1.1,0.5-1.1,1.1v11.2c0,0.6,0.5,1.1,1.1,1.1h5.8c0.6,0,1.1-0.5,1.1-1.1v-11.2
					C1177.5,624.9,1177,624.4,1176.4,624.4z"/>
				<path class="st10" d="M1209.8,607.5h-5.8c-0.6,0-1.1,0.5-1.1,1.1v11.2c0,0.6,0.5,1.1,1.1,1.1h5.8c0.6,0,1.1-0.5,1.1-1.1v-11.2
					C1210.9,608,1210.4,607.5,1209.8,607.5z"/>
				<path class="st10" d="M1187.5,590.6h-5.8c-0.6,0-1.1,0.5-1.1,1.1V603c0,0.6,0.5,1.1,1.1,1.1h5.8c0.6,0,1.1-0.5,1.1-1.1v-11.2
					C1188.7,591.1,1188.1,590.6,1187.5,590.6z"/>
				<path class="st10" d="M1209.8,641.3h-5.8c-0.6,0-1.1,0.5-1.1,1.1v11.2c0,0.6,0.5,1.1,1.1,1.1h5.8c0.6,0,1.1-0.5,1.1-1.1v-11.2
					C1210.9,641.9,1210.4,641.3,1209.8,641.3z"/>
				<path class="st10" d="M1209.8,573.7h-5.8c-0.6,0-1.1,0.5-1.1,1.1v11.2c0,0.6,0.5,1.1,1.1,1.1h5.8c0.6,0,1.1-0.5,1.1-1.1v-11.2
					C1210.9,574.2,1210.4,573.7,1209.8,573.7z"/>
				<path class="st10" d="M1209.8,590.6h-5.8c-0.6,0-1.1,0.5-1.1,1.1V603c0,0.6,0.5,1.1,1.1,1.1h5.8c0.6,0,1.1-0.5,1.1-1.1v-11.2
					C1210.9,591.1,1210.4,590.6,1209.8,590.6z"/>
				<path class="st10" d="M1198.6,573.7h-5.8c-0.6,0-1.1,0.5-1.1,1.1v11.2c0,0.6,0.5,1.1,1.1,1.1h5.8c0.6,0,1.1-0.5,1.1-1.1v-11.2
					C1199.8,574.2,1199.3,573.7,1198.6,573.7z"/>
				<path class="st10" d="M1209.8,624.4h-5.8c-0.6,0-1.1,0.5-1.1,1.1v11.2c0,0.6,0.5,1.1,1.1,1.1h5.8c0.6,0,1.1-0.5,1.1-1.1v-11.2
					C1210.9,624.9,1210.4,624.4,1209.8,624.4z"/>
				<path class="st10" d="M1198.6,590.6h-5.8c-0.6,0-1.1,0.5-1.1,1.1V603c0,0.6,0.5,1.1,1.1,1.1h5.8c0.6,0,1.1-0.5,1.1-1.1v-11.2
					C1199.8,591.1,1199.3,590.6,1198.6,590.6z"/>
				<path class="st10" d="M1187.5,573.7h-5.8c-0.6,0-1.1,0.5-1.1,1.1v11.2c0,0.6,0.5,1.1,1.1,1.1h5.8c0.6,0,1.1-0.5,1.1-1.1v-11.2
					C1188.7,574.2,1188.1,573.7,1187.5,573.7z"/>
				<path class="st10" d="M1198.6,641.3h-5.8c-0.6,0-1.1,0.5-1.1,1.1v11.2c0,0.6,0.5,1.1,1.1,1.1h5.8c0.6,0,1.1-0.5,1.1-1.1v-11.2
					C1199.8,641.9,1199.3,641.3,1198.6,641.3z"/>
				<path class="st10" d="M1198.6,607.5h-5.8c-0.6,0-1.1,0.5-1.1,1.1v11.2c0,0.6,0.5,1.1,1.1,1.1h5.8c0.6,0,1.1-0.5,1.1-1.1v-11.2
					C1199.8,608,1199.3,607.5,1198.6,607.5z"/>
				<path class="st10" d="M1198.6,624.4h-5.8c-0.6,0-1.1,0.5-1.1,1.1v11.2c0,0.6,0.5,1.1,1.1,1.1h5.8c0.6,0,1.1-0.5,1.1-1.1v-11.2
					C1199.8,624.9,1199.3,624.4,1198.6,624.4z"/>
			</g>
		</g>
		<g>
			<g>
				<path class="st10" d="M1250.8,690.3h-36.5c-4,0-7.3,4.6-7.3,10.2v91.6c0,5.6,3.3,10.2,7.3,10.2h36.5c4,0,7.3-4.6,7.3-10.2v-91.6
					C1258.1,694.9,1254.8,690.3,1250.8,690.3z"/>
				<path class="st5" d="M1226.7,733.1h-4.1c-0.4,0-0.8,0.5-0.8,1.1v11.2c0,0.6,0.4,1.1,0.8,1.1h4.1c0.4,0,0.8-0.5,0.8-1.1v-11.2
					C1227.5,733.6,1227.1,733.1,1226.7,733.1z"/>
				<path class="st5" d="M1226.7,716.1h-4.1c-0.4,0-0.8,0.5-0.8,1.1v11.2c0,0.6,0.4,1.1,0.8,1.1h4.1c0.4,0,0.8-0.5,0.8-1.1v-11.2
					C1227.5,716.7,1227.1,716.1,1226.7,716.1z"/>
				<path class="st5" d="M1226.7,750h-4.1c-0.4,0-0.8,0.5-0.8,1.1v11.2c0,0.6,0.4,1.1,0.8,1.1h4.1c0.4,0,0.8-0.5,0.8-1.1v-11.2
					C1227.5,750.5,1227.1,750,1226.7,750z"/>
				<path class="st5" d="M1226.7,699.2h-4.1c-0.4,0-0.8,0.5-0.8,1.1v11.2c0,0.6,0.4,1.1,0.8,1.1h4.1c0.4,0,0.8-0.5,0.8-1.1v-11.2
					C1227.5,699.7,1227.1,699.2,1226.7,699.2z"/>
				<path class="st5" d="M1234.6,750h-4.1c-0.4,0-0.8,0.5-0.8,1.1v11.2c0,0.6,0.4,1.1,0.8,1.1h4.1c0.5,0,0.8-0.5,0.8-1.1v-11.2
					C1235.4,750.5,1235.1,750,1234.6,750z"/>
				<path class="st5" d="M1234.6,766.9h-4.1c-0.4,0-0.8,0.5-0.8,1.1v11.2c0,0.6,0.4,1.1,0.8,1.1h4.1c0.5,0,0.8-0.5,0.8-1.1V768
					C1235.4,767.4,1235.1,766.9,1234.6,766.9z"/>
				<path class="st5" d="M1218.8,750h-4.1c-0.4,0-0.8,0.5-0.8,1.1v11.2c0,0.6,0.4,1.1,0.8,1.1h4.1c0.5,0,0.8-0.5,0.8-1.1v-11.2
					C1219.6,750.5,1219.2,750,1218.8,750z"/>
				<path class="st5" d="M1218.8,766.9h-4.1c-0.4,0-0.8,0.5-0.8,1.1v11.2c0,0.6,0.4,1.1,0.8,1.1h4.1c0.5,0,0.8-0.5,0.8-1.1V768
					C1219.6,767.4,1219.2,766.9,1218.8,766.9z"/>
				<path class="st5" d="M1234.6,733.1h-4.1c-0.4,0-0.8,0.5-0.8,1.1v11.2c0,0.6,0.4,1.1,0.8,1.1h4.1c0.5,0,0.8-0.5,0.8-1.1v-11.2
					C1235.4,733.6,1235.1,733.1,1234.6,733.1z"/>
				<path class="st5" d="M1218.8,699.2h-4.1c-0.4,0-0.8,0.5-0.8,1.1v11.2c0,0.6,0.4,1.1,0.8,1.1h4.1c0.5,0,0.8-0.5,0.8-1.1v-11.2
					C1219.6,699.7,1219.2,699.2,1218.8,699.2z"/>
				<path class="st5" d="M1218.8,733.1h-4.1c-0.4,0-0.8,0.5-0.8,1.1v11.2c0,0.6,0.4,1.1,0.8,1.1h4.1c0.5,0,0.8-0.5,0.8-1.1v-11.2
					C1219.6,733.6,1219.2,733.1,1218.8,733.1z"/>
				<path class="st5" d="M1226.7,766.9h-4.1c-0.4,0-0.8,0.5-0.8,1.1v11.2c0,0.6,0.4,1.1,0.8,1.1h4.1c0.4,0,0.8-0.5,0.8-1.1V768
					C1227.5,767.4,1227.1,766.9,1226.7,766.9z"/>
				<path class="st5" d="M1218.8,716.1h-4.1c-0.4,0-0.8,0.5-0.8,1.1v11.2c0,0.6,0.4,1.1,0.8,1.1h4.1c0.5,0,0.8-0.5,0.8-1.1v-11.2
					C1219.6,716.7,1219.2,716.1,1218.8,716.1z"/>
				<path class="st5" d="M1242.5,699.2h-4.1c-0.4,0-0.8,0.5-0.8,1.1v11.2c0,0.6,0.4,1.1,0.8,1.1h4.1c0.5,0,0.8-0.5,0.8-1.1v-11.2
					C1243.4,699.7,1243,699.2,1242.5,699.2z"/>
				<path class="st5" d="M1250.5,750h-4.1c-0.4,0-0.8,0.5-0.8,1.1v11.2c0,0.6,0.4,1.1,0.8,1.1h4.1c0.5,0,0.8-0.5,0.8-1.1v-11.2
					C1251.3,750.5,1250.9,750,1250.5,750z"/>
				<path class="st5" d="M1250.5,766.9h-4.1c-0.4,0-0.8,0.5-0.8,1.1v11.2c0,0.6,0.4,1.1,0.8,1.1h4.1c0.5,0,0.8-0.5,0.8-1.1V768
					C1251.3,767.4,1250.9,766.9,1250.5,766.9z"/>
				<path class="st5" d="M1234.6,716.1h-4.1c-0.4,0-0.8,0.5-0.8,1.1v11.2c0,0.6,0.4,1.1,0.8,1.1h4.1c0.5,0,0.8-0.5,0.8-1.1v-11.2
					C1235.4,716.7,1235.1,716.1,1234.6,716.1z"/>
				<path class="st5" d="M1250.5,699.2h-4.1c-0.4,0-0.8,0.5-0.8,1.1v11.2c0,0.6,0.4,1.1,0.8,1.1h4.1c0.5,0,0.8-0.5,0.8-1.1v-11.2
					C1251.3,699.7,1250.9,699.2,1250.5,699.2z"/>
				<path class="st5" d="M1250.5,716.1h-4.1c-0.4,0-0.8,0.5-0.8,1.1v11.2c0,0.6,0.4,1.1,0.8,1.1h4.1c0.5,0,0.8-0.5,0.8-1.1v-11.2
					C1251.3,716.7,1250.9,716.1,1250.5,716.1z"/>
				<path class="st5" d="M1250.5,733.1h-4.1c-0.4,0-0.8,0.5-0.8,1.1v11.2c0,0.6,0.4,1.1,0.8,1.1h4.1c0.5,0,0.8-0.5,0.8-1.1v-11.2
					C1251.3,733.6,1250.9,733.1,1250.5,733.1z"/>
				<path class="st5" d="M1242.5,766.9h-4.1c-0.4,0-0.8,0.5-0.8,1.1v11.2c0,0.6,0.4,1.1,0.8,1.1h4.1c0.5,0,0.8-0.5,0.8-1.1V768
					C1243.4,767.4,1243,766.9,1242.5,766.9z"/>
				<path class="st5" d="M1242.5,716.1h-4.1c-0.4,0-0.8,0.5-0.8,1.1v11.2c0,0.6,0.4,1.1,0.8,1.1h4.1c0.5,0,0.8-0.5,0.8-1.1v-11.2
					C1243.4,716.7,1243,716.1,1242.5,716.1z"/>
				<path class="st5" d="M1234.6,699.2h-4.1c-0.4,0-0.8,0.5-0.8,1.1v11.2c0,0.6,0.4,1.1,0.8,1.1h4.1c0.5,0,0.8-0.5,0.8-1.1v-11.2
					C1235.4,699.7,1235.1,699.2,1234.6,699.2z"/>
				<path class="st5" d="M1242.5,750h-4.1c-0.4,0-0.8,0.5-0.8,1.1v11.2c0,0.6,0.4,1.1,0.8,1.1h4.1c0.5,0,0.8-0.5,0.8-1.1v-11.2
					C1243.4,750.5,1243,750,1242.5,750z"/>
				<path class="st5" d="M1242.5,733.1h-4.1c-0.4,0-0.8,0.5-0.8,1.1v11.2c0,0.6,0.4,1.1,0.8,1.1h4.1c0.5,0,0.8-0.5,0.8-1.1v-11.2
					C1243.4,733.6,1243,733.1,1242.5,733.1z"/>
			</g>
			<g>
				<path class="st5" d="M1210.3,690.3H1159c-5.6,0-10.2,4.6-10.2,10.2v91.6c0,5.6,4.6,10.2,10.2,10.2h51.3
					c5.6,0,10.2-4.6,10.2-10.2v-91.6C1220.5,694.9,1215.9,690.3,1210.3,690.3z"/>
				<path class="st10" d="M1176.4,750h-5.8c-0.6,0-1.1,0.5-1.1,1.1v11.2c0,0.6,0.5,1.1,1.1,1.1h5.8c0.6,0,1.1-0.5,1.1-1.1v-11.2
					C1177.5,750.5,1177,750,1176.4,750z"/>
				<path class="st10" d="M1176.4,733.1h-5.8c-0.6,0-1.1,0.5-1.1,1.1v11.2c0,0.6,0.5,1.1,1.1,1.1h5.8c0.6,0,1.1-0.5,1.1-1.1v-11.2
					C1177.5,733.6,1177,733.1,1176.4,733.1z"/>
				<path class="st10" d="M1176.4,699.2h-5.8c-0.6,0-1.1,0.5-1.1,1.1v11.2c0,0.6,0.5,1.1,1.1,1.1h5.8c0.6,0,1.1-0.5,1.1-1.1v-11.2
					C1177.5,699.7,1177,699.2,1176.4,699.2z"/>
				<path class="st10" d="M1176.4,716.1h-5.8c-0.6,0-1.1,0.5-1.1,1.1v11.2c0,0.6,0.5,1.1,1.1,1.1h5.8c0.6,0,1.1-0.5,1.1-1.1v-11.2
					C1177.5,716.7,1177,716.1,1176.4,716.1z"/>
				<path class="st10" d="M1187.5,750h-5.8c-0.6,0-1.1,0.5-1.1,1.1v11.2c0,0.6,0.5,1.1,1.1,1.1h5.8c0.6,0,1.1-0.5,1.1-1.1v-11.2
					C1188.7,750.5,1188.1,750,1187.5,750z"/>
				<path class="st10" d="M1187.5,766.9h-5.8c-0.6,0-1.1,0.5-1.1,1.1v11.2c0,0.6,0.5,1.1,1.1,1.1h5.8c0.6,0,1.1-0.5,1.1-1.1V768
					C1188.7,767.4,1188.1,766.9,1187.5,766.9z"/>
				<path class="st10" d="M1165.2,766.9h-5.8c-0.6,0-1.1,0.5-1.1,1.1v11.2c0,0.6,0.5,1.1,1.1,1.1h5.8c0.6,0,1.1-0.5,1.1-1.1V768
					C1166.4,767.4,1165.9,766.9,1165.2,766.9z"/>
				<path class="st10" d="M1165.2,733.1h-5.8c-0.6,0-1.1,0.5-1.1,1.1v11.2c0,0.6,0.5,1.1,1.1,1.1h5.8c0.6,0,1.1-0.5,1.1-1.1v-11.2
					C1166.4,733.6,1165.9,733.1,1165.2,733.1z"/>
				<path class="st10" d="M1176.4,766.9h-5.8c-0.6,0-1.1,0.5-1.1,1.1v11.2c0,0.6,0.5,1.1,1.1,1.1h5.8c0.6,0,1.1-0.5,1.1-1.1V768
					C1177.5,767.4,1177,766.9,1176.4,766.9z"/>
				<path class="st10" d="M1165.2,750h-5.8c-0.6,0-1.1,0.5-1.1,1.1v11.2c0,0.6,0.5,1.1,1.1,1.1h5.8c0.6,0,1.1-0.5,1.1-1.1v-11.2
					C1166.4,750.5,1165.9,750,1165.2,750z"/>
				<path class="st10" d="M1165.2,699.2h-5.8c-0.6,0-1.1,0.5-1.1,1.1v11.2c0,0.6,0.5,1.1,1.1,1.1h5.8c0.6,0,1.1-0.5,1.1-1.1v-11.2
					C1166.4,699.7,1165.9,699.2,1165.2,699.2z"/>
				<path class="st10" d="M1165.2,716.1h-5.8c-0.6,0-1.1,0.5-1.1,1.1v11.2c0,0.6,0.5,1.1,1.1,1.1h5.8c0.6,0,1.1-0.5,1.1-1.1v-11.2
					C1166.4,716.7,1165.9,716.1,1165.2,716.1z"/>
				<path class="st10" d="M1187.5,716.1h-5.8c-0.6,0-1.1,0.5-1.1,1.1v11.2c0,0.6,0.5,1.1,1.1,1.1h5.8c0.6,0,1.1-0.5,1.1-1.1v-11.2
					C1188.7,716.7,1188.1,716.1,1187.5,716.1z"/>
				<path class="st10" d="M1209.8,733.1h-5.8c-0.6,0-1.1,0.5-1.1,1.1v11.2c0,0.6,0.5,1.1,1.1,1.1h5.8c0.6,0,1.1-0.5,1.1-1.1v-11.2
					C1210.9,733.6,1210.4,733.1,1209.8,733.1z"/>
				<path class="st10" d="M1209.8,750h-5.8c-0.6,0-1.1,0.5-1.1,1.1v11.2c0,0.6,0.5,1.1,1.1,1.1h5.8c0.6,0,1.1-0.5,1.1-1.1v-11.2
					C1210.9,750.5,1210.4,750,1209.8,750z"/>
				<path class="st10" d="M1198.6,699.2h-5.8c-0.6,0-1.1,0.5-1.1,1.1v11.2c0,0.6,0.5,1.1,1.1,1.1h5.8c0.6,0,1.1-0.5,1.1-1.1v-11.2
					C1199.8,699.7,1199.3,699.2,1198.6,699.2z"/>
				<path class="st10" d="M1209.8,766.9h-5.8c-0.6,0-1.1,0.5-1.1,1.1v11.2c0,0.6,0.5,1.1,1.1,1.1h5.8c0.6,0,1.1-0.5,1.1-1.1V768
					C1210.9,767.4,1210.4,766.9,1209.8,766.9z"/>
				<path class="st10" d="M1209.8,716.1h-5.8c-0.6,0-1.1,0.5-1.1,1.1v11.2c0,0.6,0.5,1.1,1.1,1.1h5.8c0.6,0,1.1-0.5,1.1-1.1v-11.2
					C1210.9,716.7,1210.4,716.1,1209.8,716.1z"/>
				<path class="st10" d="M1209.8,699.2h-5.8c-0.6,0-1.1,0.5-1.1,1.1v11.2c0,0.6,0.5,1.1,1.1,1.1h5.8c0.6,0,1.1-0.5,1.1-1.1v-11.2
					C1210.9,699.7,1210.4,699.2,1209.8,699.2z"/>
				<path class="st10" d="M1187.5,733.1h-5.8c-0.6,0-1.1,0.5-1.1,1.1v11.2c0,0.6,0.5,1.1,1.1,1.1h5.8c0.6,0,1.1-0.5,1.1-1.1v-11.2
					C1188.7,733.6,1188.1,733.1,1187.5,733.1z"/>
				<path class="st10" d="M1198.6,766.9h-5.8c-0.6,0-1.1,0.5-1.1,1.1v11.2c0,0.6,0.5,1.1,1.1,1.1h5.8c0.6,0,1.1-0.5,1.1-1.1V768
					C1199.8,767.4,1199.3,766.9,1198.6,766.9z"/>
				<path class="st10" d="M1187.5,699.2h-5.8c-0.6,0-1.1,0.5-1.1,1.1v11.2c0,0.6,0.5,1.1,1.1,1.1h5.8c0.6,0,1.1-0.5,1.1-1.1v-11.2
					C1188.7,699.7,1188.1,699.2,1187.5,699.2z"/>
				<path class="st10" d="M1198.6,733.1h-5.8c-0.6,0-1.1,0.5-1.1,1.1v11.2c0,0.6,0.5,1.1,1.1,1.1h5.8c0.6,0,1.1-0.5,1.1-1.1v-11.2
					C1199.8,733.6,1199.3,733.1,1198.6,733.1z"/>
				<path class="st10" d="M1198.6,716.1h-5.8c-0.6,0-1.1,0.5-1.1,1.1v11.2c0,0.6,0.5,1.1,1.1,1.1h5.8c0.6,0,1.1-0.5,1.1-1.1v-11.2
					C1199.8,716.7,1199.3,716.1,1198.6,716.1z"/>
				<path class="st10" d="M1198.6,750h-5.8c-0.6,0-1.1,0.5-1.1,1.1v11.2c0,0.6,0.5,1.1,1.1,1.1h5.8c0.6,0,1.1-0.5,1.1-1.1v-11.2
					C1199.8,750.5,1199.3,750,1198.6,750z"/>
			</g>
		</g>
	</g>
</g>
</svg>
